<mxfile host="Electron" agent="Mozilla/5.0 (Windows NT 10.0; Win64; x64) AppleWebKit/537.36 (KHTML, like Gecko) draw.io/24.7.17 Chrome/128.0.6613.36 Electron/32.0.1 Safari/537.36" version="24.7.17">
  <diagram name="Page-1" id="g68U-PnifDINsJDZ9939">
    <mxGraphModel dx="1322" dy="835" grid="1" gridSize="10" guides="1" tooltips="1" connect="1" arrows="1" fold="1" page="1" pageScale="1" pageWidth="850" pageHeight="1100" math="0" shadow="0">
      <root>
        <mxCell id="0" />
        <mxCell id="1" parent="0" />
        <mxCell id="zODU45Gae_rOxhApXF1g-1" value="Start" style="ellipse;whiteSpace=wrap;html=1;" vertex="1" parent="1">
          <mxGeometry x="70" y="50" width="120" height="80" as="geometry" />
        </mxCell>
        <mxCell id="zODU45Gae_rOxhApXF1g-2" value="" style="endArrow=classic;html=1;rounded=0;" edge="1" parent="1">
          <mxGeometry width="50" height="50" relative="1" as="geometry">
            <mxPoint x="129.5" y="140" as="sourcePoint" />
            <mxPoint x="129.5" y="220" as="targetPoint" />
          </mxGeometry>
        </mxCell>
        <mxCell id="zODU45Gae_rOxhApXF1g-3" value="Function ColllectInput()&lt;div&gt;&lt;br&gt;&lt;div&gt;DECLARE last_name AS STRING&lt;br&gt;&lt;/div&gt;&lt;div&gt;&lt;br&gt;&lt;/div&gt;&lt;div&gt;DECLARE num_bathrooms AS INTEGER&lt;/div&gt;&lt;div&gt;&lt;br&gt;&lt;/div&gt;&lt;div&gt;Declare num_other_rooms AS INTEGER&lt;/div&gt;&lt;/div&gt;" style="rounded=0;whiteSpace=wrap;html=1;" vertex="1" parent="1">
          <mxGeometry x="70" y="260" width="120" height="220" as="geometry" />
        </mxCell>
        <mxCell id="zODU45Gae_rOxhApXF1g-5" value="PRINT &quot;Enter customer&#39;s last name:&quot;&lt;div&gt;INPUT last_name&lt;/div&gt;" style="shape=parallelogram;perimeter=parallelogramPerimeter;whiteSpace=wrap;html=1;fixedSize=1;" vertex="1" parent="1">
          <mxGeometry x="40" y="550" width="180" height="100" as="geometry" />
        </mxCell>
        <mxCell id="zODU45Gae_rOxhApXF1g-8" value="PRINT &quot;Enter number of bathrooms to be cleaned:&quot;&lt;div&gt;INPUT num_bathrooms&lt;/div&gt;" style="shape=parallelogram;perimeter=parallelogramPerimeter;whiteSpace=wrap;html=1;fixedSize=1;" vertex="1" parent="1">
          <mxGeometry x="40" y="720" width="180" height="100" as="geometry" />
        </mxCell>
        <mxCell id="zODU45Gae_rOxhApXF1g-9" value="PRINT &quot;Enter number of other rooms to be cleaned:&quot;&lt;div&gt;INPUT num_other_rooms&lt;/div&gt;" style="shape=parallelogram;perimeter=parallelogramPerimeter;whiteSpace=wrap;html=1;fixedSize=1;" vertex="1" parent="1">
          <mxGeometry x="40" y="870" width="180" height="100" as="geometry" />
        </mxCell>
        <mxCell id="zODU45Gae_rOxhApXF1g-11" value="" style="endArrow=classic;html=1;rounded=0;" edge="1" parent="1">
          <mxGeometry width="50" height="50" relative="1" as="geometry">
            <mxPoint x="130" y="500" as="sourcePoint" />
            <mxPoint x="129.5" y="540" as="targetPoint" />
          </mxGeometry>
        </mxCell>
        <mxCell id="zODU45Gae_rOxhApXF1g-12" value="" style="endArrow=classic;html=1;rounded=0;" edge="1" parent="1">
          <mxGeometry width="50" height="50" relative="1" as="geometry">
            <mxPoint x="130" y="670" as="sourcePoint" />
            <mxPoint x="129.5" y="710" as="targetPoint" />
          </mxGeometry>
        </mxCell>
        <mxCell id="zODU45Gae_rOxhApXF1g-14" value="" style="endArrow=classic;html=1;rounded=0;" edge="1" parent="1">
          <mxGeometry width="50" height="50" relative="1" as="geometry">
            <mxPoint x="130" y="830" as="sourcePoint" />
            <mxPoint x="129.5" y="870" as="targetPoint" />
          </mxGeometry>
        </mxCell>
        <mxCell id="zODU45Gae_rOxhApXF1g-15" value="" style="endArrow=classic;html=1;rounded=0;" edge="1" parent="1">
          <mxGeometry width="50" height="50" relative="1" as="geometry">
            <mxPoint x="130" y="1000" as="sourcePoint" />
            <mxPoint x="130" y="1130" as="targetPoint" />
          </mxGeometry>
        </mxCell>
        <mxCell id="zODU45Gae_rOxhApXF1g-17" value="FUNCTION&lt;span style=&quot;white-space: pre;&quot;&gt;&#x9;&lt;/span&gt;&lt;span style=&quot;white-space: pre;&quot;&gt;&#x9;&lt;/span&gt;&lt;span style=&quot;white-space: pre;&quot;&gt;&#x9;&lt;/span&gt;&lt;span style=&quot;white-space: pre;&quot;&gt;&#x9;&lt;/span&gt;&lt;span style=&quot;white-space: pre;&quot;&gt;&#x9;&lt;/span&gt; CalculateCharges(num_bathrooms, num_other_rooms)&lt;div&gt;&lt;br&gt;&lt;/div&gt;&lt;div&gt;DECLARE base_charge AS INTEGER = 40&lt;/div&gt;&lt;div&gt;&lt;br&gt;&lt;/div&gt;&lt;div&gt;DECLARE bathroom_charge AS INTEGER = 15&lt;/div&gt;&lt;div&gt;&lt;br&gt;&lt;/div&gt;&lt;div&gt;DECLARE other_room_charge AS INTEGER = 10&lt;/div&gt;&lt;div&gt;RETURN total_bathroom_charge, total_other_room_charge, total_charge&lt;/div&gt;&lt;div&gt;&lt;br&gt;&lt;/div&gt;&lt;div&gt;END FUNCTION&lt;span style=&quot;white-space: pre;&quot;&gt;&#x9;&lt;/span&gt;&lt;span style=&quot;white-space: pre;&quot;&gt;&#x9;&lt;/span&gt;&lt;span style=&quot;white-space: pre;&quot;&gt;&#x9;&lt;/span&gt;&lt;span style=&quot;white-space: pre;&quot;&gt;&#x9;&lt;/span&gt;&lt;/div&gt;" style="rounded=0;whiteSpace=wrap;html=1;" vertex="1" parent="1">
          <mxGeometry x="20" y="1150" width="200" height="290" as="geometry" />
        </mxCell>
        <mxCell id="zODU45Gae_rOxhApXF1g-24" value="" style="endArrow=classic;html=1;rounded=0;" edge="1" parent="1">
          <mxGeometry width="50" height="50" relative="1" as="geometry">
            <mxPoint x="119.5" y="1440" as="sourcePoint" />
            <mxPoint x="119.5" y="1570" as="targetPoint" />
          </mxGeometry>
        </mxCell>
        <mxCell id="zODU45Gae_rOxhApXF1g-26" value="FUNCTION Results(last_name, total_bathroom_charge, total_ other_room_charge_, total_charge)&lt;div&gt;&lt;br&gt;&lt;/div&gt;&lt;div&gt;PRINT &quot;Customer Name: &quot; + last_name&lt;/div&gt;&lt;div&gt;PRINT &quot; Number of Bathrooms: &quot;&amp;nbsp; + num_other_rooms + &quot;, Cost to Clean: $&quot; + total_other_room_charge&lt;/div&gt;&lt;div&gt;PRINT &quot;Number of Other Rooms: &quot; + num)other_rooms + &quot;, Cost to Clean: $&quot; + total_other_room_charge&lt;/div&gt;&lt;div&gt;PRINT &quot;Housecleaning service complete.&quot;&lt;/div&gt;&lt;div&gt;END FUNCTION&lt;/div&gt;" style="shape=parallelogram;perimeter=parallelogramPerimeter;whiteSpace=wrap;html=1;fixedSize=1;align=center;" vertex="1" parent="1">
          <mxGeometry x="-90" y="1580" width="345" height="260" as="geometry" />
        </mxCell>
        <mxCell id="zODU45Gae_rOxhApXF1g-27" value="" style="endArrow=classic;html=1;rounded=0;" edge="1" parent="1">
          <mxGeometry width="50" height="50" relative="1" as="geometry">
            <mxPoint x="82" y="1860" as="sourcePoint" />
            <mxPoint x="82" y="1990" as="targetPoint" />
          </mxGeometry>
        </mxCell>
        <mxCell id="zODU45Gae_rOxhApXF1g-28" value="// Execution&lt;div&gt;last_name, num_bathrooms, num_other_rooms = CollectInput()&lt;/div&gt;&lt;div&gt;total_bathroom_charge, total_other_room_charge, total_charge = CalculateCharges(num_bathrooms, num_other_rooms)&amp;nbsp;&lt;/div&gt;&lt;div&gt;DisplayResults(last_name, total_bathroom_charge, total_other_room_charge, total_charge)&lt;br/&gt;EndProgram()&lt;/div&gt;" style="rounded=0;whiteSpace=wrap;html=1;" vertex="1" parent="1">
          <mxGeometry x="-70" y="2340" width="290" height="170" as="geometry" />
        </mxCell>
        <mxCell id="zODU45Gae_rOxhApXF1g-29" value="FUNCTION EndProgram()&lt;div&gt;PRINT &quot;Thank you for using Hazel&#39;s Housecleaning Service.&quot;&lt;/div&gt;" style="shape=parallelogram;perimeter=parallelogramPerimeter;whiteSpace=wrap;html=1;fixedSize=1;align=center;" vertex="1" parent="1">
          <mxGeometry x="-80" y="1990" width="345" height="190" as="geometry" />
        </mxCell>
        <mxCell id="zODU45Gae_rOxhApXF1g-30" value="END" style="ellipse;whiteSpace=wrap;html=1;" vertex="1" parent="1">
          <mxGeometry x="20" y="2660" width="120" height="80" as="geometry" />
        </mxCell>
        <mxCell id="zODU45Gae_rOxhApXF1g-31" value="" style="endArrow=classic;html=1;rounded=0;" edge="1" parent="1">
          <mxGeometry width="50" height="50" relative="1" as="geometry">
            <mxPoint x="82" y="2200" as="sourcePoint" />
            <mxPoint x="82" y="2330" as="targetPoint" />
          </mxGeometry>
        </mxCell>
        <mxCell id="zODU45Gae_rOxhApXF1g-33" value="" style="endArrow=classic;html=1;rounded=0;" edge="1" parent="1">
          <mxGeometry width="50" height="50" relative="1" as="geometry">
            <mxPoint x="82" y="2520" as="sourcePoint" />
            <mxPoint x="82" y="2650" as="targetPoint" />
          </mxGeometry>
        </mxCell>
      </root>
    </mxGraphModel>
  </diagram>
</mxfile>
